<svg xmlns="http://www.w3.org/2000/svg" width="1280" height="720" viewBox="0 0 1280 720">
  <defs>
    <linearGradient id="bg" x1="0" y1="0" x2="1" y2="1">
      <stop stop-color="#11131a"/>
      <stop offset="1" stop-color="#1e1720"/>
    </linearGradient>
  </defs>
  <rect width="1280" height="720" rx="28" fill="url(#bg)"/>
  <rect x="42" y="42" width="1196" height="636" rx="20" fill="#0b0d12" stroke="#343744" stroke-width="2"/>
  <circle cx="78" cy="78" r="8" fill="#ff5f57"/><circle cx="104" cy="78" r="8" fill="#febc2e"/><circle cx="130" cy="78" r="8" fill="#28c840"/>
  <text x="640" y="85" fill="#8a92a8" font-family="Menlo, monospace" font-size="20" text-anchor="middle">kaspi-skill · shortlist</text>
  <text x="82" y="150" fill="#f14635" font-family="Menlo, monospace" font-weight="700" font-size="28">$</text>
  <text x="120" y="150" fill="#f5f7ff" font-family="Menlo, monospace" font-size="28">$kaspi тихий лазерный принтер с Wi-Fi</text>
  <text x="120" y="198" fill="#f5f7ff" font-family="Menlo, monospace" font-size="28">до 100 000 ₸, Алматы, нужен завтра</text>
  <rect x="80" y="250" width="1120" height="1" fill="#292c37"/>
  <text x="82" y="310" fill="#8a92a8" font-family="Menlo, monospace" font-size="23">Hard gates</text>
  <rect x="82" y="342" width="230" height="48" rx="24" fill="#2b1a1b" stroke="#f14635"/>
  <text x="197" y="374" fill="#ff7667" font-family="Menlo, monospace" font-size="20" text-anchor="middle">≤ 100 000 ₸</text>
  <rect x="330" y="342" width="216" height="48" rx="24" fill="#19242b" stroke="#5bc0de"/>
  <text x="438" y="374" fill="#79d7ee" font-family="Menlo, monospace" font-size="20" text-anchor="middle">Wi-Fi</text>
  <rect x="564" y="342" width="244" height="48" rx="24" fill="#1b2a22" stroke="#54c985"/>
  <text x="686" y="374" fill="#77e2a2" font-family="Menlo, monospace" font-size="20" text-anchor="middle">завтра</text>
  <rect x="826" y="342" width="260" height="48" rx="24" fill="#242039" stroke="#9687f0"/>
  <text x="956" y="374" fill="#b8adff" font-family="Menlo, monospace" font-size="20" text-anchor="middle">Алматы</text>
  <text x="82" y="470" fill="#f5f7ff" font-family="Menlo, monospace" font-size="25">Проверяю запросы, модели и срок доставки…</text>
  <rect x="82" y="515" width="760" height="12" rx="6" fill="#252934"/>
  <rect x="82" y="515" width="220" height="12" rx="6" fill="#f14635"/>
  <text x="82" y="595" fill="#8a92a8" font-family="Menlo, monospace" font-size="20">live search → relevance → seller offers → recommendation</text>
</svg>
